# xmcd CD database file
#
# Track frame offsets:
#	150
#	18397
#	33387
#	54019
#	66216
#	83295
#	102402
#	116293
#	132153
#
# Disc length: 1970 seconds
#
# Revision: 0
# Processed by: cddbd v1.5.1PL2 Copyright (c) Steve Scherf et al.
# Submitted via: CDex 1.51
#
DISCID=6207b009
DTITLE=Nendeto - Sedm zivotu
DYEAR=1998
DGENRE=Country
TTITLE0=Sedm zivotu
TTITLE1=Gorila a Indian
TTITLE2=Kdo ma vic
TTITLE3=Balada o rumu
TTITLE4=Malinkej flam
TTITLE5=Kouzelna kniha
TTITLE6=Wrong Side of Love
TTITLE7=Je mi skvele
TTITLE8=Honky tonky Jack
EXTD=YEAR: 1998
EXTT0=
EXTT1=
EXTT2=
EXTT3=
EXTT4=
EXTT5=
EXTT6=
EXTT7=
EXTT8=
PLAYORDER=
